<?xml version="1.0" standalone="no"?><!DOCTYPE svg PUBLIC "-//W3C//DTD SVG 1.1//EN" "http://www.w3.org/Graphics/SVG/1.1/DTD/svg11.dtd"><svg t="1608187356086" class="icon" viewBox="0 0 1024 1024" version="1.1" xmlns="http://www.w3.org/2000/svg" p-id="3149" xmlns:xlink="http://www.w3.org/1999/xlink" width="200" height="200"><defs><style type="text/css"></style></defs><path d="M512 109.776593A288.426667 288.426667 0 0 0 223.55437 398.222222 288.426667 288.426667 0 0 0 512 686.667852 288.426667 288.426667 0 0 0 800.44563 398.222222 288.426667 288.426667 0 0 0 512 109.776593zM512 75.851852c178.043259 0 322.37037 144.327111 322.37037 322.37037s-144.327111 322.37037-322.37037 322.370371S189.62963 576.265481 189.62963 398.222222 333.956741 75.851852 512 75.851852z m161.507556 268.09837a170.135704 170.135704 0 1 0-12.743112 137.91763 16.971852 16.971852 0 0 0-29.582222-16.630519 136.116148 136.116148 0 1 1 10.202074-110.383407 16.971852 16.971852 0 1 0 32.12326-10.903704z" fill="#333333" p-id="3150"></path></svg>