<?xml version="1.0" standalone="no"?><!DOCTYPE svg PUBLIC "-//W3C//DTD SVG 1.1//EN" "http://www.w3.org/Graphics/SVG/1.1/DTD/svg11.dtd"><svg t="1608191147690" class="icon" viewBox="0 0 1024 1024" version="1.1" xmlns="http://www.w3.org/2000/svg" p-id="3893" xmlns:xlink="http://www.w3.org/1999/xlink" width="200" height="200"><defs><style type="text/css"></style></defs><path d="M512 135.168c-207.872 0-376.832 168.96-376.832 376.832 0 207.872 168.96 376.832 376.832 376.832 207.872 0 376.832-168.96 376.832-376.832 0-207.872-168.96-376.832-376.832-376.832z m231.424 608.256c-30.208 30.208-65.024 53.76-103.936 70.144-40.448 16.896-83.456 25.6-127.488 25.6-44.032 0-87.04-8.704-127.488-25.6-38.912-16.384-73.728-39.936-103.936-70.144-30.208-30.208-53.76-65.024-70.144-103.936-16.896-40.448-25.6-83.456-25.6-127.488 0-44.032 8.704-87.04 25.6-127.488 16.384-38.912 39.936-73.728 70.144-103.936 30.208-30.208 65.024-53.76 103.936-70.144 40.448-16.896 83.456-25.6 127.488-25.6 44.032 0 87.04 8.704 127.488 25.6 38.912 16.384 73.728 39.936 103.936 70.144 30.208 30.208 53.76 65.024 70.144 103.936 16.896 40.448 25.6 83.456 25.6 127.488 0 44.032-8.704 87.04-25.6 127.488-16.384 38.912-39.936 73.728-70.144 103.936z" p-id="3894" fill="#dbdbdb"></path><path d="M512 376.832h129.024c13.824 0 24.576-11.264 24.576-24.576s-11.264-24.576-24.576-24.576H508.416c-48.128 1.024-93.184 19.968-126.976 54.272-34.816 34.816-54.272 81.408-54.272 130.56s19.456 95.744 54.272 130.56c33.792 33.792 78.848 53.248 126.976 54.272h132.608c13.824 0 24.576-11.264 24.576-24.576s-11.264-24.576-24.576-24.576H512c-74.752 0-135.168-60.928-135.168-135.168S437.248 376.832 512 376.832z" p-id="3895" fill="#dbdbdb"></path></svg>