<?xml version="1.0" standalone="no"?><!DOCTYPE svg PUBLIC "-//W3C//DTD SVG 1.1//EN" "http://www.w3.org/Graphics/SVG/1.1/DTD/svg11.dtd"><svg t="1608187398507" class="icon" viewBox="0 0 1024 1024" version="1.1" xmlns="http://www.w3.org/2000/svg" p-id="4132" xmlns:xlink="http://www.w3.org/1999/xlink" width="200" height="200"><defs><style type="text/css"></style></defs><path d="M929.792 741.888v-348.16l-181.76 181.76 181.76 166.4m-306.688-41.472c-29.696 29.696-70.144 46.592-112.128 46.592-42.496 0-81.92-16.384-112.128-46.592l-97.28-97.792-209.408 192v32.256c0 41.984 34.304 76.288 76.288 76.288h685.056c41.984 0 76.288-34.304 76.288-76.288V793.6L720.896 602.112l-97.792 98.304" p-id="4133"></path><path d="M855.552 249.344H169.984c-41.984 0-75.776 34.304-75.776 76.288v15.872l333.824 333.824c22.528 22.528 53.248 35.328 84.992 35.328 32.256 0 62.464-12.288 84.992-35.328L931.84 341.504v-15.872c0-41.984-34.304-76.288-76.288-76.288M92.16 393.728v349.184L274.432 576 92.16 393.728" p-id="4134"></path></svg>